<?xml version="1.0" encoding="UTF-8" standalone="no"?>
<!DOCTYPE svg PUBLIC "-//W3C//DTD SVG 1.1//EN"
 "http://www.w3.org/Graphics/SVG/1.1/DTD/svg11.dtd">
<!-- Generated by graphviz version 2.43.20200403.0503 (20200403.0503)
 -->
<!-- Title: G Pages: 1 -->
<svg width="454pt" height="278pt"
 viewBox="0.00 0.00 454.30 278.44" xmlns="http://www.w3.org/2000/svg" xmlns:xlink="http://www.w3.org/1999/xlink">
<g id="graph0" class="graph" transform="scale(1 1) rotate(0) translate(4 274.44)">
<title>G</title>
<polygon fill="white" stroke="transparent" points="-4,4 -4,-274.44 450.3,-274.44 450.3,4 -4,4"/>
<!-- a -->
<g id="node1" class="node">
<title>a</title>
<polygon fill="yellow" stroke="transparent" points="8.5,-42.44 8.5,-63.44 41.5,-63.44 41.5,-42.44 8.5,-42.44"/>
<polygon fill="none" stroke="black" points="8.5,-42.44 8.5,-63.44 41.5,-63.44 41.5,-42.44 8.5,-42.44"/>
<text text-anchor="start" x="11.5" y="-49.24" font-family="Times,serif" font-size="14.00">class</text>
<polygon fill="lightblue" stroke="transparent" points="41.5,-42.44 41.5,-63.44 93.5,-63.44 93.5,-42.44 41.5,-42.44"/>
<polygon fill="none" stroke="black" points="41.5,-42.44 41.5,-63.44 93.5,-63.44 93.5,-42.44 41.5,-42.44"/>
<text text-anchor="start" x="44.5" y="-49.24" font-family="Times,serif" font-size="14.00">qualifier</text>
</g>
<!-- b -->
<g id="node2" class="node">
<title>b</title>
<g id="a_node2"><a xlink:href="http://www.graphviz.org/content/node-shapes" xlink:title="&lt;TABLE&gt;">
<ellipse fill="lightgrey" stroke="black" cx="341.65" cy="-83.44" rx="104.8" ry="83.38"/>
<g id="a_node2_0"><a xlink:href="http://www.graphviz.org/content/node-shapes#html" xlink:title="&lt;TABLE&gt;">
<polygon fill="bisque" stroke="transparent" points="275.65,-28.44 275.65,-138.44 407.65,-138.44 407.65,-28.44 275.65,-28.44"/>
<g id="a_node2_1"><a xlink:href="http://go/wiki/Elephant" xlink:title="&lt;TABLE&gt;">
<polygon fill="bisque" stroke="transparent" points="278.65,-114.44 278.65,-135.44 375.65,-135.44 375.65,-114.44 278.65,-114.44"/>
<polygon fill="none" stroke="black" points="278.65,-114.44 278.65,-135.44 375.65,-135.44 375.65,-114.44 278.65,-114.44"/>
<text text-anchor="start" x="304.15" y="-121.24" font-family="Times,serif" font-size="14.00">elephant</text>
</a>
</g>
<polygon fill="chartreuse" stroke="transparent" points="377.65,-76.44 377.65,-135.44 404.65,-135.44 404.65,-76.44 377.65,-76.44"/>
<polygon fill="none" stroke="black" points="377.65,-76.44 377.65,-135.44 404.65,-135.44 404.65,-76.44 377.65,-76.44"/>
<text text-anchor="start" x="380.65" y="-83.24" font-family="Times,serif" font-size="14.00">two</text>
<polygon fill="none" stroke="black" points="278.65,-31.44 278.65,-112.44 323.65,-112.44 323.65,-31.44 278.65,-31.44"/>
<g id="a_node2_2"><a xlink:href="http://go/wiki/Grey" xlink:title="&lt;TABLE&gt;">
<polygon fill="grey" stroke="transparent" points="281.65,-34.44 281.65,-109.44 320.65,-109.44 320.65,-34.44 281.65,-34.44"/>
<g id="a_node2_3"><a xlink:href="http://go/wiki/Sweet_corn" xlink:title="&lt;TABLE&gt;">
<polygon fill="none" stroke="black" points="284.65,-84.44 284.65,-106.44 317.65,-106.44 317.65,-84.44 284.65,-84.44"/>
<text text-anchor="start" x="288.65" y="-91.74" font-family="Times,serif" font-size="14.00">corn</text>
</a>
</g>
<polygon fill="yellow" stroke="transparent" points="284.65,-60.44 284.65,-82.44 317.65,-82.44 317.65,-60.44 284.65,-60.44"/>
<polygon fill="none" stroke="black" points="284.65,-60.44 284.65,-82.44 317.65,-82.44 317.65,-60.44 284.65,-60.44"/>
<text text-anchor="start" x="297.65" y="-67.74" font-family="Times,serif" font-size="14.00">c</text>
<g id="a_node2_4"><a xlink:href="http://go/wiki/F" xlink:title="&lt;TABLE&gt;">
<polygon fill="none" stroke="black" points="284.65,-37.44 284.65,-58.44 317.65,-58.44 317.65,-37.44 284.65,-37.44"/>
<text text-anchor="start" x="298.65" y="-44.24" font-family="Times,serif" font-size="14.00">f</text>
</a>
</g>
<polygon fill="none" stroke="black" points="281.65,-34.44 281.65,-109.44 320.65,-109.44 320.65,-34.44 281.65,-34.44"/>
</a>
</g>
<polygon fill="white" stroke="transparent" points="325.65,-76.44 325.65,-112.44 375.65,-112.44 375.65,-76.44 325.65,-76.44"/>
<polygon fill="none" stroke="black" points="325.65,-76.44 325.65,-112.44 375.65,-112.44 375.65,-76.44 325.65,-76.44"/>
<text text-anchor="start" x="328.65" y="-90.74" font-family="Times,serif" font-size="14.00">penguin</text>
<polygon fill="none" stroke="black" stroke-width="4" points="327.65,-33.44 327.65,-72.44 402.65,-72.44 402.65,-33.44 327.65,-33.44"/>
<text text-anchor="start" x="391.65" y="-49.24" font-family="Times,serif" font-size="14.00">4</text>
<polygon fill="none" stroke="black" points="275.65,-28.44 275.65,-138.44 407.65,-138.44 407.65,-28.44 275.65,-28.44"/>
</a>
</g>
</a>
</g>
</g>
<!-- a&#45;&gt;b -->
<g id="edge1" class="edge">
<title>a:here&#45;&gt;b:there</title>
<path fill="none" stroke="black" d="M106.6,-51.63C174.12,-43.82 341.36,17.48 363.27,-20.72"/>
<polygon fill="black" stroke="black" points="106.47,-51.64 100.75,-56.03 94.5,-52.44 100.22,-48.05 106.47,-51.64"/>
<polygon fill="black" stroke="black" points="359.87,-21.56 365.65,-30.44 366.67,-19.89 359.87,-21.56"/>
</g>
<!-- c -->
<g id="node3" class="node">
<title>c</title>
<text text-anchor="start" x="312.15" y="-239.74" font-family="Times,serif" font-size="14.00">long line 1</text>
<text text-anchor="start" x="312.15" y="-224.74" font-family="Times,serif" font-size="14.00">line 2</text>
<text text-anchor="start" x="340.15" y="-209.74" font-family="Times,serif" font-size="14.00">line 3</text>
</g>
<!-- c&#45;&gt;b -->
<g id="edge2" class="edge">
<title>c&#45;&gt;b</title>
<path fill="none" stroke="black" d="M341.65,-201.55C341.65,-193.45 341.65,-185.35 341.65,-177.25"/>
<polygon fill="black" stroke="black" points="345.15,-176.98 341.65,-166.98 338.15,-176.98 345.15,-176.98"/>
</g>
<!-- d -->
<g id="node4" class="node">
<title>d</title>
<polygon fill="none" stroke="black" points="50.5,-251.44 20.7,-216.94 80.3,-216.94 50.5,-251.44"/>
<text text-anchor="middle" x="50.5" y="-224.74" font-family="Times,serif" font-size="14.00">d</text>
</g>
<!-- d&#45;&gt;c -->
<g id="edge3" class="edge">
<title>d&#45;&gt;c</title>
<path fill="none" stroke="black" d="M70.47,-228.44C115.34,-228.44 229.06,-228.44 293.76,-228.44"/>
<polygon fill="black" stroke="black" points="294.09,-231.94 304.09,-228.44 294.09,-224.94 294.09,-231.94"/>
<polygon fill="red" stroke="transparent" points="122,-231.44 122,-267.44 132,-267.44 132,-231.44 122,-231.44"/>
<polygon fill="none" stroke="black" points="122,-231.44 122,-267.44 132,-267.44 132,-231.44 122,-231.44"/>
<text text-anchor="start" x="125" y="-245.74" font-family="Times,serif" font-size="14.00"> </text>
<polygon fill="none" stroke="black" points="134,-231.44 134,-267.44 204,-267.44 204,-231.44 134,-231.44"/>
<text text-anchor="start" x="137" y="-253.24" font-family="Times,serif" font-size="14.00">Edge labels</text>
<text text-anchor="start" x="158" y="-238.24" font-family="Times,serif" font-size="14.00">also</text>
<polygon fill="blue" stroke="transparent" points="206,-231.44 206,-267.44 216,-267.44 216,-231.44 206,-231.44"/>
<polygon fill="none" stroke="black" points="206,-231.44 206,-267.44 216,-267.44 216,-231.44 206,-231.44"/>
<text text-anchor="start" x="209" y="-245.74" font-family="Times,serif" font-size="14.00"> </text>
<polygon fill="none" stroke="black" points="119,-228.44 119,-270.44 219,-270.44 219,-228.44 119,-228.44"/>
</g>
</g>
</svg>
