<?xml version="1.0" encoding="UTF-8" standalone="no"?>
<?xml-stylesheet href="stylesheet" type="text/css"?>
<!DOCTYPE svg PUBLIC "-//W3C//DTD SVG 1.1//EN"
 "http://www.w3.org/Graphics/SVG/1.1/DTD/svg11.dtd">
<!-- Generated by graphviz version 2.43.20200403.0503 (20200403.0503)
 -->
<!-- Title: G Pages: 1 -->
<svg width="501pt" height="191pt"
 viewBox="0.00 0.00 500.84 191.00" xmlns="http://www.w3.org/2000/svg" xmlns:xlink="http://www.w3.org/1999/xlink">
<g id="graph0" class="graph" transform="scale(1 1) rotate(0) translate(4 187)">
<title>G</title>
<g id="a_graph0"><a xlink:href="http://www.graphviz.org/doc/info/output.html" xlink:title="output">
<polygon fill="white" stroke="transparent" points="-4,4 -4,-187 496.84,-187 496.84,4 -4,4"/>
<text text-anchor="middle" x="246.42" y="-7.8" font-family="Times,serif" font-size="14.00">output</text>
</a>
</g>
<g id="clust1" class="cluster">
<title>cluster0</title>
<g id="a_clust1"><a xlink:href="http://www.graphviz.org/doc/info/arrows.html" xlink:title="arrows">
<polygon fill="yellow" stroke="black" points="96.84,-31 96.84,-106 284.84,-106 284.84,-31 96.84,-31"/>
<text text-anchor="middle" x="190.84" y="-90.8" font-family="Times,serif" font-size="14.00">arrows</text>
</a>
</g>
</g>
<!-- lang -->
<g id="node1" class="node">
<title>lang</title>
<g id="a_node1"><a xlink:href="http://www.graphviz.org/doc/info/lang.html" xlink:title="lang">
<ellipse fill="none" stroke="black" cx="230.84" cy="-165" rx="27" ry="18"/>
<text text-anchor="middle" x="230.84" y="-161.3" font-family="Times,serif" font-size="14.00">lang</text>
</a>
</g>
</g>
<!-- colors -->
<g id="node2" class="node">
<title>colors</title>
<g id="a_node2"><a xlink:href="http://www.graphviz.org/doc/info/output.html" xlink:title="&lt;TABLE&gt;">
<ellipse fill="lightblue" stroke="black" cx="43.84" cy="-57" rx="43.68" ry="25"/>
<g id="a_node2_0"><a xlink:href="http://www.graphviz.org/doc/info/colors.html" xlink:title="&lt;TABLE&gt;">
<polygon fill="green" stroke="transparent" points="23.84,-46 23.84,-67 63.84,-67 63.84,-46 23.84,-46"/>
<polygon fill="none" stroke="black" points="23.84,-46 23.84,-67 63.84,-67 63.84,-46 23.84,-46"/>
<text text-anchor="start" x="26.84" y="-52.8" font-family="Times,serif" font-size="14.00">colors</text>
<polygon fill="none" stroke="black" points="20.84,-43.5 20.84,-70.5 66.84,-70.5 66.84,-43.5 20.84,-43.5"/>
</a>
</g>
</a>
</g>
</g>
<!-- lang&#45;&gt;colors -->
<g id="edge2" class="edge">
<title>lang&#45;&gt;colors</title>
<g id="a_edge2"><a xlink:href="lang-&gt;colors" xlink:title="self">
<path fill="none" stroke="black" d="M206.53,-156.88C177.85,-147.8 129.42,-130.31 92.84,-106 84.68,-100.58 76.71,-93.69 69.64,-86.83"/>
<polygon fill="black" stroke="black" points="71.89,-84.12 62.37,-79.47 66.91,-89.04 71.89,-84.12"/>
</a>
</g>
</g>
<!-- command -->
<g id="node3" class="node">
<title>command</title>
<g id="a_node3"><a xlink:href="http://www.graphviz.org/doc/info/command.html" xlink:title="command">
<ellipse fill="grey" stroke="black" cx="230.84" cy="-57" rx="46.29" ry="18"/>
<text text-anchor="middle" x="230.84" y="-53.3" font-family="Times,serif" font-size="14.00">command</text>
</a>
</g>
</g>
<!-- lang&#45;&gt;command -->
<g id="edge1" class="edge">
<title>lang&#45;&gt;command</title>
<g id="a_edge1"><a xlink:href="http://www.graphviz.org/doc/info/shapes.html">
<path fill="none" stroke="black" d="M230.84,-146.97C230.84,-130.38 230.84,-104.88 230.84,-85.43"/>
<polygon fill="black" stroke="black" points="234.34,-85.34 230.84,-75.34 227.34,-85.34 234.34,-85.34"/>
</a>
</g>
</g>
<!-- size -->
<g id="node5" class="node">
<title>size</title>
<ellipse fill="none" stroke="black" cx="321.84" cy="-57" rx="27" ry="18"/>
<text text-anchor="middle" x="321.84" y="-53.3" font-family="Times,serif" font-size="14.00">size</text>
</g>
<!-- lang&#45;&gt;size -->
<g id="edge3" class="edge">
<title>lang&#45;&gt;size</title>
<g id="a_edge3"><a xlink:href="headurl" xlink:title="headurl">
<path fill="none" stroke="black" d="M246.4,-149.93C258.55,-138.6 275.54,-121.98 288.84,-106 294.95,-98.66 301.04,-90.2 306.3,-82.45"/>
<polygon fill="black" stroke="black" points="309.23,-84.36 311.84,-74.09 303.39,-80.49 309.23,-84.36"/>
</a>
</g>
<g id="a_edge3&#45;headlabel"><a xlink:href="headsize" xlink:title="size">
<text text-anchor="middle" x="300.84" y="-77.89" font-family="Times,serif" font-size="14.00">size</text>
</a>
</g>
</g>
<!-- name -->
<g id="node4" class="node">
<title>name</title>
<g id="a_node4"><a xlink:href="G name" xlink:title="name">
<ellipse fill="none" stroke="black" cx="135.84" cy="-57" rx="30.59" ry="18"/>
<text text-anchor="middle" x="135.84" y="-53.3" font-family="Times,serif" font-size="14.00">name</text>
</a>
</g>
</g>
<!-- word -->
<g id="node6" class="node">
<title>word</title>
<ellipse fill="none" stroke="black" cx="372.84" cy="-165" rx="28.7" ry="18"/>
<text text-anchor="middle" x="372.84" y="-161.3" font-family="Times,serif" font-size="14.00">word</text>
</g>
<!-- word&#45;&gt;size -->
<g id="edge4" class="edge">
<title>word&#45;&gt;size</title>
<g id="a_edge4"><a xlink:href="tailurl">
<path fill="none" stroke="black" d="M364.87,-147.44C356.64,-130.32 343.68,-103.39 334.13,-83.54"/>
<polygon fill="black" stroke="black" points="337.24,-81.94 329.75,-74.45 330.94,-84.97 337.24,-81.94"/>
</a>
</g>
<g id="a_edge4&#45;taillabel"><a xlink:href="tailsize" xlink:title="size">
<text text-anchor="middle" x="353.87" y="-136.24" font-family="Times,serif" font-size="14.00">size</text>
</a>
</g>
</g>
<!-- garf -->
<g id="node7" class="node">
<title>garf</title>
<ellipse fill="none" stroke="black" cx="393.84" cy="-57" rx="27" ry="18"/>
<text text-anchor="middle" x="393.84" y="-53.3" font-family="Times,serif" font-size="14.00">garf</text>
</g>
<!-- word&#45;&gt;garf -->
<g id="edge5" class="edge">
<title>word&#45;&gt;garf</title>
<g id="a_edge5"><a xlink:href="labelurl" xlink:title="garf">
<path fill="none" stroke="black" d="M376.21,-146.97C379.54,-130.2 384.66,-104.34 388.53,-84.81"/>
<polygon fill="black" stroke="black" points="391.96,-85.48 390.47,-74.99 385.1,-84.12 391.96,-85.48"/>
</a>
</g>
<g id="a_edge5&#45;label"><a xlink:href="garf" xlink:title="garf">
<text text-anchor="middle" x="392.84" y="-117.8" font-family="Times,serif" font-size="14.00">garf</text>
</a>
</g>
</g>
<!-- line -->
<g id="node8" class="node">
<title>line</title>
<ellipse fill="none" stroke="black" cx="465.84" cy="-165" rx="27" ry="18"/>
<text text-anchor="middle" x="465.84" y="-161.3" font-family="Times,serif" font-size="14.00">line</text>
</g>
<!-- all -->
<g id="node9" class="node">
<title>all</title>
<ellipse fill="none" stroke="black" cx="465.84" cy="-57" rx="27" ry="18"/>
<text text-anchor="middle" x="465.84" y="-53.3" font-family="Times,serif" font-size="14.00">all</text>
</g>
<!-- line&#45;&gt;all -->
<g id="edge6" class="edge">
<title>line&#45;&gt;all</title>
<g id="a_edge6"><a xlink:href="labelurl" xlink:title="edgetooltip">
<path fill="none" stroke="black" d="M465.84,-146.97C465.84,-130.38 465.84,-104.88 465.84,-85.43"/>
<polygon fill="black" stroke="black" points="469.34,-85.34 465.84,-75.34 462.34,-85.34 469.34,-85.34"/>
</a>
</g>
<g id="a_edge6&#45;label"><a xlink:href="garf" xlink:title="garf">
<text text-anchor="middle" x="476.84" y="-117.8" font-family="Times,serif" font-size="14.00">garf</text>
</a>
</g>
<g id="a_edge6&#45;headlabel"><a xlink:href="headURL" xlink:title="headtooltip">
<text text-anchor="middle" x="439.84" y="-79.14" font-family="Times,serif" font-size="14.00">headlabel</text>
</a>
</g>
<g id="a_edge6&#45;taillabel"><a xlink:href="tailURL" xlink:title="tailtooltip">
<text text-anchor="middle" x="443.84" y="-135.77" font-family="Times,serif" font-size="14.00">taillabel</text>
</a>
</g>
</g>
</g>
</svg>
