<?xml version="1.0" encoding="UTF-8" standalone="no"?>
<!DOCTYPE svg PUBLIC "-//W3C//DTD SVG 1.1//EN"
 "http://www.w3.org/Graphics/SVG/1.1/DTD/svg11.dtd">
<!-- Generated by graphviz version 2.44.1 (20200629.0800)
 -->
<!-- Title: G Pages: 1 -->
<svg width="457pt" height="278pt"
 viewBox="0.00 0.00 457.13 278.44" xmlns="http://www.w3.org/2000/svg" xmlns:xlink="http://www.w3.org/1999/xlink">
<g id="graph0" class="graph" transform="scale(1 1) rotate(0) translate(4 274.44)">
<title>G</title>
<polygon fill="white" stroke="transparent" points="-4,4 -4,-274.44 453.13,-274.44 453.13,4 -4,4"/>
<!-- a -->
<g id="node1" class="node">
<title>a</title>
<polygon fill="yellow" stroke="transparent" points="8.5,-42.44 8.5,-63.44 42.5,-63.44 42.5,-42.44 8.5,-42.44"/>
<polygon fill="none" stroke="black" points="8.5,-42.44 8.5,-63.44 42.5,-63.44 42.5,-42.44 8.5,-42.44"/>
<text text-anchor="start" x="11.5" y="-49.24" font-family="Times New Roman,serif" font-size="14.00">class</text>
<polygon fill="lightblue" stroke="transparent" points="42.5,-42.44 42.5,-63.44 93.5,-63.44 93.5,-42.44 42.5,-42.44"/>
<polygon fill="none" stroke="black" points="42.5,-42.44 42.5,-63.44 93.5,-63.44 93.5,-42.44 42.5,-42.44"/>
<text text-anchor="start" x="45.5" y="-49.24" font-family="Times New Roman,serif" font-size="14.00">qualifier</text>
</g>
<!-- b -->
<g id="node2" class="node">
<title>b</title>
<g id="a_node2"><a xlink:href="http://www.graphviz.org/content/node-shapes" xlink:title="&lt;TABLE&gt;">
<ellipse fill="lightgrey" stroke="black" cx="343.07" cy="-83.44" rx="106.13" ry="83.38"/>
<g id="a_node2_0"><a xlink:href="http://www.graphviz.org/content/node-shapes#html" xlink:title="&lt;TABLE&gt;">
<polygon fill="bisque" stroke="transparent" points="276.07,-28.44 276.07,-138.44 410.07,-138.44 410.07,-28.44 276.07,-28.44"/>
<g id="a_node2_1"><a xlink:href="http://go/wiki/Elephant" xlink:title="&lt;TABLE&gt;">
<polygon fill="bisque" stroke="transparent" points="279.07,-114.44 279.07,-135.44 377.07,-135.44 377.07,-114.44 279.07,-114.44"/>
<polygon fill="none" stroke="black" points="279.07,-114.44 279.07,-135.44 377.07,-135.44 377.07,-114.44 279.07,-114.44"/>
<text text-anchor="start" x="305.07" y="-121.24" font-family="Times New Roman,serif" font-size="14.00">elephant</text>
</a>
</g>
<polygon fill="chartreuse" stroke="transparent" points="379.07,-76.44 379.07,-135.44 407.07,-135.44 407.07,-76.44 379.07,-76.44"/>
<polygon fill="none" stroke="black" points="379.07,-76.44 379.07,-135.44 407.07,-135.44 407.07,-76.44 379.07,-76.44"/>
<text text-anchor="start" x="382.07" y="-83.24" font-family="Times New Roman,serif" font-size="14.00">two</text>
<polygon fill="none" stroke="black" points="279.07,-31.44 279.07,-112.44 325.07,-112.44 325.07,-31.44 279.07,-31.44"/>
<g id="a_node2_2"><a xlink:href="http://go/wiki/Grey" xlink:title="&lt;TABLE&gt;">
<polygon fill="grey" stroke="transparent" points="282.07,-34.44 282.07,-109.44 322.07,-109.44 322.07,-34.44 282.07,-34.44"/>
<g id="a_node2_3"><a xlink:href="http://go/wiki/Sweet_corn" xlink:title="&lt;TABLE&gt;">
<polygon fill="none" stroke="black" points="285.07,-84.44 285.07,-106.44 319.07,-106.44 319.07,-84.44 285.07,-84.44"/>
<text text-anchor="start" x="289.07" y="-91.74" font-family="Times New Roman,serif" font-size="14.00">corn</text>
</a>
</g>
<polygon fill="yellow" stroke="transparent" points="285.07,-60.44 285.07,-82.44 319.07,-82.44 319.07,-60.44 285.07,-60.44"/>
<polygon fill="none" stroke="black" points="285.07,-60.44 285.07,-82.44 319.07,-82.44 319.07,-60.44 285.07,-60.44"/>
<text text-anchor="start" x="298.57" y="-67.74" font-family="Times New Roman,serif" font-size="14.00">c</text>
<g id="a_node2_4"><a xlink:href="http://go/wiki/F" xlink:title="&lt;TABLE&gt;">
<polygon fill="none" stroke="black" points="285.07,-37.44 285.07,-58.44 319.07,-58.44 319.07,-37.44 285.07,-37.44"/>
<text text-anchor="start" x="299.57" y="-44.24" font-family="Times New Roman,serif" font-size="14.00">f</text>
</a>
</g>
<polygon fill="none" stroke="black" points="282.07,-34.44 282.07,-109.44 322.07,-109.44 322.07,-34.44 282.07,-34.44"/>
</a>
</g>
<polygon fill="white" stroke="transparent" points="327.07,-76.44 327.07,-112.44 377.07,-112.44 377.07,-76.44 327.07,-76.44"/>
<polygon fill="none" stroke="black" points="327.07,-76.44 327.07,-112.44 377.07,-112.44 377.07,-76.44 327.07,-76.44"/>
<text text-anchor="start" x="330.07" y="-90.74" font-family="Times New Roman,serif" font-size="14.00">penguin</text>
<polygon fill="none" stroke="black" stroke-width="4" points="329.07,-33.44 329.07,-72.44 405.07,-72.44 405.07,-33.44 329.07,-33.44"/>
<text text-anchor="start" x="394.07" y="-49.24" font-family="Times New Roman,serif" font-size="14.00">4</text>
<polygon fill="none" stroke="black" points="276.07,-28.44 276.07,-138.44 410.07,-138.44 410.07,-28.44 276.07,-28.44"/>
</a>
</g>
</a>
</g>
</g>
<!-- a&#45;&gt;b -->
<g id="edge1" class="edge">
<title>a:here&#45;&gt;b:there</title>
<path fill="none" stroke="black" d="M106.66,-51.63C174.53,-43.79 342.64,17.74 364.67,-20.67"/>
<polygon fill="black" stroke="black" points="106.47,-51.64 100.75,-56.03 94.5,-52.44 100.22,-48.05 106.47,-51.64"/>
<polygon fill="black" stroke="black" points="361.29,-21.56 367.07,-30.44 368.08,-19.89 361.29,-21.56"/>
</g>
<!-- c -->
<g id="node3" class="node">
<title>c</title>
<text text-anchor="start" x="314.07" y="-239.74" font-family="Times New Roman,serif" font-size="14.00">long line 1</text>
<text text-anchor="start" x="314.07" y="-224.74" font-family="Times New Roman,serif" font-size="14.00">line 2</text>
<text text-anchor="start" x="342.07" y="-209.74" font-family="Times New Roman,serif" font-size="14.00">line 3</text>
</g>
<!-- c&#45;&gt;b -->
<g id="edge2" class="edge">
<title>c&#45;&gt;b</title>
<path fill="none" stroke="black" d="M343.07,-201.55C343.07,-193.45 343.07,-185.35 343.07,-177.25"/>
<polygon fill="black" stroke="black" points="346.57,-176.98 343.07,-166.98 339.57,-176.98 346.57,-176.98"/>
</g>
<!-- d -->
<g id="node4" class="node">
<title>d</title>
<polygon fill="none" stroke="black" points="50.5,-251.44 19.1,-216.94 81.9,-216.94 50.5,-251.44"/>
<text text-anchor="middle" x="50.5" y="-224.74" font-family="Times New Roman,serif" font-size="14.00">d</text>
</g>
<!-- d&#45;&gt;c -->
<g id="edge3" class="edge">
<title>d&#45;&gt;c</title>
<path fill="none" stroke="black" d="M71.47,-228.44C117.26,-228.44 230.82,-228.44 295.33,-228.44"/>
<polygon fill="black" stroke="black" points="295.63,-231.94 305.63,-228.44 295.63,-224.94 295.63,-231.94"/>
<polygon fill="red" stroke="transparent" points="122,-231.44 122,-267.44 132,-267.44 132,-231.44 122,-231.44"/>
<polygon fill="none" stroke="black" points="122,-231.44 122,-267.44 132,-267.44 132,-231.44 122,-231.44"/>
<text text-anchor="start" x="125" y="-245.74" font-family="Times New Roman,serif" font-size="14.00"> </text>
<polygon fill="none" stroke="black" points="134,-231.44 134,-267.44 204,-267.44 204,-231.44 134,-231.44"/>
<text text-anchor="start" x="137" y="-253.24" font-family="Times New Roman,serif" font-size="14.00">Edge labels</text>
<text text-anchor="start" x="157.5" y="-238.24" font-family="Times New Roman,serif" font-size="14.00">also</text>
<polygon fill="blue" stroke="transparent" points="206,-231.44 206,-267.44 216,-267.44 216,-231.44 206,-231.44"/>
<polygon fill="none" stroke="black" points="206,-231.44 206,-267.44 216,-267.44 216,-231.44 206,-231.44"/>
<text text-anchor="start" x="209" y="-245.74" font-family="Times New Roman,serif" font-size="14.00"> </text>
<polygon fill="none" stroke="black" points="119,-228.44 119,-270.44 219,-270.44 219,-228.44 119,-228.44"/>
</g>
</g>
</svg>
