<?xml version="1.0" encoding="UTF-8" standalone="no"?>
<?xml-stylesheet href="stylesheet" type="text/css"?>
<!DOCTYPE svg PUBLIC "-//W3C//DTD SVG 1.1//EN"
 "http://www.w3.org/Graphics/SVG/1.1/DTD/svg11.dtd">
<!-- Generated by graphviz version 2.44.1 (20200629.0800)
 -->
<!-- Title: G Pages: 1 -->
<svg width="504pt" height="191pt"
 viewBox="0.00 0.00 504.25 191.00" xmlns="http://www.w3.org/2000/svg" xmlns:xlink="http://www.w3.org/1999/xlink">
<g id="graph0" class="graph" transform="scale(1 1) rotate(0) translate(4 187)">
<title>G</title>
<g id="a_graph0"><a xlink:href="http://www.graphviz.org/doc/info/output.html" xlink:title="output">
<polygon fill="white" stroke="transparent" points="-4,4 -4,-187 500.25,-187 500.25,4 -4,4"/>
<text text-anchor="middle" x="248.13" y="-7.8" font-family="Times New Roman,serif" font-size="14.00">output</text>
</a>
</g>
<g id="clust1" class="cluster">
<title>cluster0</title>
<g id="a_clust1"><a xlink:href="http://www.graphviz.org/doc/info/arrows.html" xlink:title="arrows">
<polygon fill="yellow" stroke="black" points="100.25,-31 100.25,-106 288.25,-106 288.25,-31 100.25,-31"/>
<text text-anchor="middle" x="194.25" y="-90.8" font-family="Times New Roman,serif" font-size="14.00">arrows</text>
</a>
</g>
</g>
<!-- lang -->
<g id="node1" class="node">
<title>lang</title>
<g id="a_node1"><a xlink:href="http://www.graphviz.org/doc/info/lang.html" xlink:title="lang">
<ellipse fill="none" stroke="black" cx="233.25" cy="-165" rx="27" ry="18"/>
<text text-anchor="middle" x="233.25" y="-161.3" font-family="Times New Roman,serif" font-size="14.00">lang</text>
</a>
</g>
</g>
<!-- colors -->
<g id="node2" class="node">
<title>colors</title>
<g id="a_node2"><a xlink:href="http://www.graphviz.org/doc/info/output.html" xlink:title="&lt;TABLE&gt;">
<ellipse fill="lightblue" stroke="black" cx="45.25" cy="-57" rx="45.01" ry="25"/>
<g id="a_node2_0"><a xlink:href="http://www.graphviz.org/doc/info/colors.html" xlink:title="&lt;TABLE&gt;">
<polygon fill="green" stroke="transparent" points="24.25,-46 24.25,-67 66.25,-67 66.25,-46 24.25,-46"/>
<polygon fill="none" stroke="black" points="24.25,-46 24.25,-67 66.25,-67 66.25,-46 24.25,-46"/>
<text text-anchor="start" x="27.25" y="-52.8" font-family="Times New Roman,serif" font-size="14.00">colors</text>
<polygon fill="none" stroke="black" points="21.25,-43.5 21.25,-70.5 69.25,-70.5 69.25,-43.5 21.25,-43.5"/>
</a>
</g>
</a>
</g>
</g>
<!-- lang&#45;&gt;colors -->
<g id="edge2" class="edge">
<title>lang&#45;&gt;colors</title>
<g id="a_edge2"><a xlink:href="lang-&gt;colors" xlink:title="self">
<path fill="none" stroke="black" d="M209.21,-156.72C180.81,-147.48 132.82,-129.84 96.25,-106 87.88,-100.54 79.62,-93.63 72.27,-86.77"/>
<polygon fill="black" stroke="black" points="74.3,-83.87 64.68,-79.42 69.43,-88.89 74.3,-83.87"/>
</a>
</g>
</g>
<!-- command -->
<g id="node3" class="node">
<title>command</title>
<g id="a_node3"><a xlink:href="http://www.graphviz.org/doc/info/command.html" xlink:title="command">
<ellipse fill="grey" stroke="black" cx="233.25" cy="-57" rx="46.59" ry="18"/>
<text text-anchor="middle" x="233.25" y="-53.3" font-family="Times New Roman,serif" font-size="14.00">command</text>
</a>
</g>
</g>
<!-- lang&#45;&gt;command -->
<g id="edge1" class="edge">
<title>lang&#45;&gt;command</title>
<g id="a_edge1"><a xlink:href="http://www.graphviz.org/doc/info/shapes.html">
<path fill="none" stroke="black" d="M233.25,-146.97C233.25,-130.38 233.25,-104.88 233.25,-85.43"/>
<polygon fill="black" stroke="black" points="236.75,-85.34 233.25,-75.34 229.75,-85.34 236.75,-85.34"/>
</a>
</g>
</g>
<!-- size -->
<g id="node5" class="node">
<title>size</title>
<ellipse fill="none" stroke="black" cx="325.25" cy="-57" rx="27" ry="18"/>
<text text-anchor="middle" x="325.25" y="-53.3" font-family="Times New Roman,serif" font-size="14.00">size</text>
</g>
<!-- lang&#45;&gt;size -->
<g id="edge3" class="edge">
<title>lang&#45;&gt;size</title>
<g id="a_edge3"><a xlink:href="headurl" xlink:title="headurl">
<path fill="none" stroke="black" d="M248.85,-150.21C261.24,-138.9 278.68,-122.17 292.25,-106 298.39,-98.68 304.5,-90.23 309.75,-82.48"/>
<polygon fill="black" stroke="black" points="312.68,-84.39 315.28,-74.12 306.85,-80.53 312.68,-84.39"/>
</a>
</g>
<g id="a_edge3&#45;headlabel"><a xlink:href="headsize" xlink:title="size">
<text text-anchor="middle" x="304.28" y="-77.92" font-family="Times New Roman,serif" font-size="14.00">size</text>
</a>
</g>
</g>
<!-- name -->
<g id="node4" class="node">
<title>name</title>
<g id="a_node4"><a xlink:href="G name" xlink:title="name">
<ellipse fill="none" stroke="black" cx="138.25" cy="-57" rx="29.8" ry="18"/>
<text text-anchor="middle" x="138.25" y="-53.3" font-family="Times New Roman,serif" font-size="14.00">name</text>
</a>
</g>
</g>
<!-- word -->
<g id="node6" class="node">
<title>word</title>
<ellipse fill="none" stroke="black" cx="375.25" cy="-165" rx="29.8" ry="18"/>
<text text-anchor="middle" x="375.25" y="-161.3" font-family="Times New Roman,serif" font-size="14.00">word</text>
</g>
<!-- word&#45;&gt;size -->
<g id="edge4" class="edge">
<title>word&#45;&gt;size</title>
<g id="a_edge4"><a xlink:href="tailurl">
<path fill="none" stroke="black" d="M367.44,-147.44C359.37,-130.32 346.66,-103.39 337.3,-83.54"/>
<polygon fill="black" stroke="black" points="340.44,-82 333.01,-74.45 334.11,-84.98 340.44,-82"/>
</a>
</g>
<g id="a_edge4&#45;taillabel"><a xlink:href="tailsize" xlink:title="size">
<text text-anchor="middle" x="356.44" y="-136.24" font-family="Times New Roman,serif" font-size="14.00">size</text>
</a>
</g>
</g>
<!-- garf -->
<g id="node7" class="node">
<title>garf</title>
<ellipse fill="none" stroke="black" cx="397.25" cy="-57" rx="27" ry="18"/>
<text text-anchor="middle" x="397.25" y="-53.3" font-family="Times New Roman,serif" font-size="14.00">garf</text>
</g>
<!-- word&#45;&gt;garf -->
<g id="edge5" class="edge">
<title>word&#45;&gt;garf</title>
<g id="a_edge5"><a xlink:href="labelurl" xlink:title="garf">
<path fill="none" stroke="black" d="M378.79,-146.97C382.27,-130.2 387.64,-104.34 391.69,-84.81"/>
<polygon fill="black" stroke="black" points="395.12,-85.49 393.73,-74.99 388.27,-84.07 395.12,-85.49"/>
</a>
</g>
<g id="a_edge5&#45;label"><a xlink:href="garf" xlink:title="garf">
<text text-anchor="middle" x="396.25" y="-117.8" font-family="Times New Roman,serif" font-size="14.00">garf</text>
</a>
</g>
</g>
<!-- line -->
<g id="node8" class="node">
<title>line</title>
<ellipse fill="none" stroke="black" cx="469.25" cy="-165" rx="27" ry="18"/>
<text text-anchor="middle" x="469.25" y="-161.3" font-family="Times New Roman,serif" font-size="14.00">line</text>
</g>
<!-- all -->
<g id="node9" class="node">
<title>all</title>
<ellipse fill="none" stroke="black" cx="469.25" cy="-57" rx="27" ry="18"/>
<text text-anchor="middle" x="469.25" y="-53.3" font-family="Times New Roman,serif" font-size="14.00">all</text>
</g>
<!-- line&#45;&gt;all -->
<g id="edge6" class="edge">
<title>line&#45;&gt;all</title>
<g id="a_edge6"><a xlink:href="labelurl" xlink:title="edgetooltip">
<path fill="none" stroke="black" d="M469.25,-146.97C469.25,-130.38 469.25,-104.88 469.25,-85.43"/>
<polygon fill="black" stroke="black" points="472.75,-85.34 469.25,-75.34 465.75,-85.34 472.75,-85.34"/>
</a>
</g>
<g id="a_edge6&#45;label"><a xlink:href="garf" xlink:title="garf">
<text text-anchor="middle" x="480.25" y="-117.8" font-family="Times New Roman,serif" font-size="14.00">garf</text>
</a>
</g>
<g id="a_edge6&#45;headlabel"><a xlink:href="headURL" xlink:title="headtooltip">
<text text-anchor="middle" x="443.25" y="-79.14" font-family="Times New Roman,serif" font-size="14.00">headlabel</text>
</a>
</g>
<g id="a_edge6&#45;taillabel"><a xlink:href="tailURL" xlink:title="tailtooltip">
<text text-anchor="middle" x="448.25" y="-135.77" font-family="Times New Roman,serif" font-size="14.00">taillabel</text>
</a>
</g>
</g>
</g>
</svg>
